<svg width="24" height="24" viewBox="0 0 24 24" fill="none" xmlns="http://www.w3.org/2000/svg">
<path d="M7 13C7.55 13 8 12.55 8 12S7.55 11 7 11 6 11.45 6 12 6.45 13 7 13ZM12 2L13.09 8.26L20 9L13.09 9.74L12 16L10.91 9.74L4 9L10.91 8.26L12 2Z" fill="currentColor"/>
<path d="M19 7H18V6C18 5.45 17.55 5 17 5S16 5.45 16 6V7H15C14.45 7 14 7.45 14 8S14.45 9 15 9H16V10C16 10.55 16.45 11 17 11S18 10.55 18 10V9H19C19.55 9 20 8.55 20 8S19.55 7 19 7ZM12 2L13.09 8.26L20 9L13.09 9.74L12 16L10.91 9.74L4 9L10.91 8.26L12 2Z" fill="currentColor"/>
</svg>